<svg width="33" height="32" viewBox="0 0 33 32" fill="none" xmlns="http://www.w3.org/2000/svg">
<g clip-path="url(#clip0)">
<path d="M26.0299 29.8991C25.7833 29.8991 25.5384 29.8261 25.3284 29.6837L17.3918 24.3001L13.1351 27.3631C12.8013 27.6031 12.371 27.6636 11.9833 27.525C11.5961 27.3861 11.3021 27.0654 11.1972 26.6677L9.0598 18.5677L1.42279 15.6476C0.942011 15.4637 0.623156 15.0037 0.619658 14.4889C0.61616 13.9742 0.928684 13.5099 1.40713 13.3195L30.4459 1.76475C30.5776 1.70878 30.7171 1.67646 30.8577 1.6678C30.908 1.6648 30.9585 1.6648 31.0086 1.66763C31.2998 1.68496 31.5858 1.80357 31.8091 2.02247C31.8322 2.04513 31.8542 2.06828 31.875 2.09244C32.06 2.30367 32.1616 2.56122 32.1807 2.8236C32.1854 2.88957 32.1851 2.95638 32.1792 3.02318C32.1752 3.07082 32.1684 3.1183 32.1588 3.16545L27.2572 28.8835C27.1784 29.2967 26.8972 29.6425 26.5087 29.8036C26.3546 29.8676 26.1918 29.8991 26.0299 29.8991ZM18.0887 21.7533L25.1583 26.5486L28.9722 6.53707L15.1973 19.792L18.0554 21.7308C18.0669 21.738 18.0779 21.7456 18.0887 21.7533ZM12.2035 20.6869L13.1501 24.2736L15.1895 22.8061L12.5191 20.9946C12.3949 20.9107 12.2887 20.8061 12.2035 20.6869ZM5.30685 14.4571L10.5508 16.462C10.9264 16.6056 11.21 16.9215 11.3126 17.3103L11.9776 19.8307C12.0081 19.54 12.1399 19.2664 12.354 19.0604L25.4795 6.43046L5.30685 14.4571Z" fill="black"/>
</g>
<defs>
<clipPath id="clip0">
<rect width="31.5644" height="31.5644" fill="white" transform="translate(0.619629)"/>
</clipPath>
</defs>
</svg>
