<svg width="27" height="27" viewBox="0 0 27 27" fill="none" xmlns="http://www.w3.org/2000/svg">
<g clip-path="url(#clip0)">
<path d="M13.4004 6.62478C14.0782 6.62478 14.6277 6.07527 14.6277 5.39747C14.6277 4.16378 15.6315 3.16018 16.865 3.16018H20.3307C21.0085 3.16018 21.5581 2.61067 21.5581 1.93287C21.5581 1.25507 21.0085 0.705566 20.3307 0.705566H16.865C14.2778 0.705566 12.1731 2.81031 12.1731 5.39747C12.1731 6.07511 12.7226 6.62478 13.4004 6.62478Z" fill="black"/>
<path d="M20.0677 10.4629H7.51612C6.83832 10.4629 6.28882 11.0124 6.28882 11.6902C6.28882 12.368 6.83832 12.9175 7.51612 12.9175H12.1733V25.6316C12.1733 26.3094 12.7228 26.8589 13.4006 26.8589C14.0784 26.8589 14.6279 26.3094 14.6279 25.6316V12.9175H20.0679C20.7457 12.9175 21.2952 12.368 21.2952 11.6902C21.2952 11.0124 20.7455 10.4629 20.0677 10.4629Z" fill="black"/>
</g>
<defs>
<clipPath id="clip0">
<rect width="26.1534" height="26.1534" fill="white" transform="translate(0.84668 0.705566)"/>
</clipPath>
</defs>
</svg>
