<svg width="28" height="29" viewBox="0 0 28 29" fill="none" xmlns="http://www.w3.org/2000/svg">
<g clip-path="url(#clip0)">
<path d="M20.2416 0.803711H7.71493C3.46092 0.803711 0 4.26479 0 8.5188V21.0455C0 25.2997 3.46092 28.7606 7.71493 28.7606H20.2416C24.496 28.7606 27.9569 25.2995 27.9569 21.0455V8.5188C27.9571 4.26479 24.496 0.803711 20.2416 0.803711ZM25.4766 21.0455C25.4766 23.932 23.1282 26.2801 20.2418 26.2801H7.71493C4.82865 26.2803 2.48047 23.932 2.48047 21.0455V8.5188C2.48047 5.63253 4.82865 3.28418 7.71493 3.28418H20.2416C23.1281 3.28418 25.4764 5.63253 25.4764 8.5188V21.0455H25.4766Z" fill="black"/>
<path d="M13.9784 7.57861C10.0062 7.57861 6.77466 10.8102 6.77466 14.7824C6.77466 18.7545 10.0062 21.9859 13.9784 21.9859C17.9507 21.9859 21.1822 18.7545 21.1822 14.7824C21.1822 10.8102 17.9507 7.57861 13.9784 7.57861ZM13.9784 19.5052C11.3741 19.5052 9.25513 17.3866 9.25513 14.7822C9.25513 12.1777 11.3739 10.0589 13.9784 10.0589C16.5829 10.0589 18.7018 12.1777 18.7018 14.7822C18.7018 17.3866 16.5828 19.5052 13.9784 19.5052Z" fill="black"/>
<path d="M21.4843 5.47559C21.0064 5.47559 20.5369 5.66906 20.1994 6.00806C19.8602 6.3454 19.6653 6.81504 19.6653 7.2946C19.6653 7.77267 19.8604 8.24214 20.1994 8.58113C20.5368 8.91848 21.0064 9.11361 21.4843 9.11361C21.9638 9.11361 22.4318 8.91848 22.7708 8.58113C23.1098 8.24214 23.3033 7.7725 23.3033 7.2946C23.3033 6.81504 23.1098 6.3454 22.7708 6.00806C22.4335 5.66906 21.9638 5.47559 21.4843 5.47559Z" fill="black"/>
</g>
<defs>
<clipPath id="clip0">
<rect width="27.9571" height="27.9571" fill="white" transform="translate(0 0.803711)"/>
</clipPath>
</defs>
</svg>
